<?xml version="1.0" encoding="UTF-8"?>
<svg id="Layer_1" xmlns="http://www.w3.org/2000/svg" version="1.1" viewBox="0 0 160 160">
  <!-- Generator: Adobe Illustrator 30.0.0, SVG Export Plug-In . SVG Version: 2.1.1 Build 123)  -->
  <defs>
    <style>
      .st0 {
        font-family: Helvetica-Bold, Helvetica;
        font-size: 16px;
      }

      .st1 {
        fill: #aaa;
      }

      .st2 {
        fill: #a11323;
      }

      .st3 {
        font-family: Qualy-Bold, Qualy;
        font-size: 54px;
        letter-spacing: -.1em;
      }

      .st4 {
        font-weight: 700;
      }

      .st4, .st5 {
        fill: #fff;
      }
    </style>
  </defs>
  <path class="st2" d="M127.23,99.56l6.32,5.39c-3,5.17-2.31,3.98-5.31,9.15l-7.82-2.81c-4.34,4.33-4.96,4.94-9.3,9.26l2.78,7.83-9.17,5.27-5.36-6.34-12.69,3.37-1.51,8.17-10.58-.02-1.47-8.18c-5.92-1.6-6.76-1.83-12.68-3.42l-5.39,6.32-9.15-5.31,2.81-7.82-9.26-9.3-7.83,2.78c-2.98-5.19-2.29-3.99-5.27-9.17l6.34-5.36-3.37-12.69-8.17-1.51.02-10.58,8.18-1.47,3.42-12.68-6.32-5.39,5.31-9.15,7.82,2.81,9.3-9.26-2.78-7.83,9.17-5.27,5.36,6.34,12.69-3.37,1.51-8.17,10.58.02,1.47,8.18,12.68,3.42,5.39-6.32,9.15,5.31-2.81,7.82,9.26,9.3,7.83-2.78,5.27,9.17-6.34,5.36,3.37,12.69,8.17,1.51-.02,10.58-8.18,1.47-3.42,12.68Z"/>
  <circle class="st5" cx="79.36" cy="80.87" r="41.49"/>
  <circle class="st1" cx="79.46" cy="80.88" r="38.49"/>
  <text class="st4" transform="translate(58.69 64.02)"><tspan class="st0"><tspan x="0" y="0">TUPV</tspan></tspan><tspan class="st3"><tspan x="-9.86" y="42">AS</tspan></tspan></text>
</svg>